<svg xmlns="http://www.w3.org/2000/svg" x="0px" y="0px" viewBox="0 0 864 864" enable-background="new 0 0 864 864">
<style>.ls0{fill:#000}</style>
<g>
<path class="ls0" d="M456.4 388.2L432 351.3 407.6 388.2 432 425z"/>
<path class="ls0" d="M362 265.8L409.9 193.6 387.8 160.2 317.8 265.8 293.4 302.6 212.2 425 256.5 425 337.6 302.6 526.4 302.6 607.5 425 651.8 425 570.6 302.6 546.2 265.8 476.2 160.2 454.1 193.6 502 265.8z"/>
<path class="ls0" d="M409.9 126.9L432 160.2 454.1 126.9 432 93.5z"/><path class="ls0" d="M256.5,441.2h-44.2l24.4,36.9l56.7,85.6l24.4,36.8l70,105.6l24.6,37.2l0,0l19.6,29.5l19.6-29.5l0,0l24.6-37.2	l70-105.6l24.4-36.8l56.7-85.6l24.4-36.9h-44.2H256.5z M526.4,563.6L502,600.4l-47.9,72.2L432,706l-22.1-33.4L362,600.4l-24.4-36.8	L280.9,478H432h151.1L526.4,563.6z"/>
</g>
</svg>